<svg fill-rule="evenodd" xmlns="http://www.w3.org/2000/svg" width="12" height="12" viewBox="0 0 12 12"><path d="M1.01 9.33C0.35 8.35 0 7.19 0 6 0 4.41 0.63 2.88 1.76 1.76 2.88 0.63 4.41 0 6 0 7.19 0 8.35 0.35 9.33 1.01 10.32 1.67 11.09 2.61 11.54 3.7 12 4.8 12.12 6.01 11.88 7.17 11.65 8.33 11.08 9.4 10.24 10.24 9.4 11.08 8.33 11.65 7.17 11.88 6.01 12.12 4.8 12 3.7 11.54 2.61 11.09 1.67 10.32 1.01 9.33ZM8.25 3L9 3.75 6.75 6 9 8.25 8.25 9 6 6.75 3.75 9 3 8.25 5.25 6 3 3.75 3.75 3 6 5.25 8.25 3Z" fill="currentColor"/></svg>
