<svg xmlns="http://www.w3.org/2000/svg" width="24" height="24" viewBox="0 0 24 24" fill="none">
<style>.a{fill:#B390E0;}</style><path d="M9 5H7V10.2L8 11 9 10.2V5Z" class="a"/>
<path d="M9 15.3L8 16 7 15.2V19H9V15.3Z" class="a"/>
<path d="M11 13.7L12.4 12.6 13 13.1V19H11V13.7Z" class="a"/>
<path d="M13 7.8L12.6 7.4 11 8.6V7H13V7.8Z" class="a"/>
<path d="M15 14.8V19H17V14.8L16 15.6 15 14.8Z" class="a"/>
<path d="M17 9.6L16 10.4 15 9.5V7H17V9.6Z" class="a"/>
<path d="M19 13.2L19.2 13H21V19H19V13.2Z" class="a"/>
<path d="M21.6 9.8L16 14.3 12.5 11.3 8 14.7 2.4 10.8 3.6 9.2 8 12.3 12.5 8.7 16 11.7 20.4 8.2 21.6 9.8Z" fill="#767676"/>
</svg>
