<svg xmlns="http://www.w3.org/2000/svg" width="24" height="24" viewBox="0 0 24 24" fill="none">
<style>.a{fill:#B390E0;}.b{fill:#767676;}</style>
<path d="M7 13H9V19H7V13Z" class="a"/>
<path d="M3 16H5V19H3V16Z" class="a"/>
<path d="M13 15H11V19H13V15Z" class="a"/>
<path d="M15 13H17V19H15V13Z" class="a"/>
<path d="M21 15H19V19H21V15Z" class="a"/>
<path d="M15 5H17V7H15V5Z" class="b"/>
<path d="M7 9H9V12H7V9Z" class="b"/>
<path d="M3 11H5V15H3V11Z" class="b"/>
<path d="M13 12H11V14H13V12Z" class="b"/>
<path d="M21 11H19V14H21V11Z" class="b"/>
<path d="M7.9 4.8L15.9 8.8 20.4 5.2 21.6 6.8 16.1 11.2 8.1 7.2 3.6 10.3 2.4 8.7 7.9 4.8Z" class="a"/>
</svg>
