<svg xmlns="http://www.w3.org/2000/svg" width="24" height="24" viewBox="0 0 24 24" fill="none">
<style>.a{fill:#B390E0;}</style>
<path d="M10.7 5.1L9.4 2.3C10.2 2.1 11.1 2 12 2 17.2 2 21.4 5.9 22 11H18.9C18.4 7.6 15.5 5 12 5 11.6 5 11.1 5 10.7 5.1Z" fill="#767676"/>
<path d="M8.8 5.8L7.6 3C4.3 4.7 2 8.1 2 12 2 15.9 4.2 19.3 7.5 20.9L8.7 18.2C6.5 17 5 14.7 5 12 5 9.3 6.5 6.9 8.8 5.8Z" class="a"/>
<path d="M10.6 18.9C11 19 11.5 19 12 19 15.5 19 18.4 16.4 18.9 13H22C21.4 18.1 17.2 22 12 22 11.1 22 10.2 21.9 9.3 21.6L10.6 18.9Z" class="a"/>
</svg>
