<svg xmlns="http://www.w3.org/2000/svg" width="24" height="24" viewBox="0 0 24 24" fill="none">
<style>.a{fill:#B390E0;}</style>
<path d="M7.5 10.4C7.5 10.4 7.5 10.3 7.5 10.3 6.9 9 6.2 7.6 5.6 6.5 4.8 5.2 3.6 4 2 4L2 6C2.5 6 3.1 6.4 3.9 7.6 4.5 8.5 5 9.8 5.6 11.1 5.7 11.3 5.8 11.4 5.9 11.6 6.1 11.3 6.5 11.1 6.8 10.8 7 10.7 7.2 10.5 7.5 10.4Z" class="a"/>
<path d="M9.3 14C9.2 14 9.2 14 9.2 14.1 8.7 14.4 8.3 14.8 7.8 15.4 8 15.8 8.3 16.2 8.6 16.6 9.7 17.9 11.1 19 13 19 14.6 19 15.8 18.7 16.7 18.3 17.7 17.8 18.3 17.2 18.8 16.7 18.8 16.6 18.9 16.5 19 16.5 19.4 16 19.7 15.7 20.1 15.5 20.5 15.2 21 15 22 15V13C20.7 13 19.8 13.3 19 13.8 18.4 14.2 17.9 14.7 17.5 15.1 17.4 15.2 17.4 15.3 17.3 15.3 16.9 15.8 16.4 16.2 15.8 16.5 15.2 16.8 14.4 17 13 17 11.9 17 11 16.4 10.2 15.3 9.8 14.9 9.5 14.5 9.3 14Z" class="a"/>
<path d="M15.6 11.6C14.4 12.1 12.7 12.5 10.5 12.5 9.2 12.5 8.1 13.5 6.7 14.9 6.7 15 6.6 15.1 6.5 15.2 6 15.8 5.3 16.4 4.7 16.9 4 17.5 3.1 18 2 18V16C2.4 16 2.9 15.8 3.5 15.4 4 14.9 4.5 14.4 5.1 13.8 5.1 13.7 5.2 13.6 5.3 13.6 6.5 12.3 8.2 10.5 10.5 10.5 12.5 10.5 13.8 10.2 14.8 9.7 15.7 9.3 16.3 8.7 16.8 8.1 16.9 8 17.1 7.8 17.2 7.7 17.6 7.1 18.1 6.5 18.7 6.1 19.5 5.4 20.5 5 22 5L22 7C21 7 20.4 7.3 19.9 7.7 19.5 8 19.2 8.3 18.8 8.8 18.7 9 18.5 9.2 18.3 9.4 17.7 10.2 16.9 11 15.6 11.6Z" fill="#767676"/>
</svg>
