<svg width="16" height="16" viewBox="0 0 16 16" fill="none" xmlns="http://www.w3.org/2000/svg">
<path fill-rule="evenodd" clip-rule="evenodd" d="M7 9H9V4H7V9ZM4.11 2.17973C5.26 1.41 6.61 1 8 1C9.85 1.00 11.63 1.74 12.94 3.05265C14.25 4.36 14.99 6.14 15 8C15 9.38 14.5895 10.74 13.82 11.889C13.05 13.04 11.95 13.93 10.67 14.4672C9.39 14.99 7.99 15.13 6.63 14.8655C5.27 14.59 4.02 13.92 3.05 12.9498C2.07 11.97 1.40 10.72 1.13 9.36564C0.86 8.00 1.00 6.60 1.53 5.32122C2.06 4.04 2.95 2.94 4.11 2.17973ZM7 12H9V10H7V12Z" fill="#D6645C"/>
</svg>
