<svg width="16" height="16" viewBox="0 0 16 16" fill="none" xmlns="http://www.w3.org/2000/svg">
<path d="M2.29 11.7094C1.90 11.32 1.90 10.69 2.29 10.3063L5.13 7.5L2.29 4.69373C1.90 4.30 1.90 3.67 2.29 3.2906C2.68 2.90 3.32 2.90 3.71 3.2906L7.97 7.5L3.71 11.7094C3.32 12.09 2.68 12.09 2.29 11.70Z" fill="#595959"/>
<path d="M8.31 11.7094C7.92 11.32 7.92 10.69 8.31 10.3063L11.15 7.5L8.31 4.69373C7.92 4.30 7.92 3.67 8.31 3.2906C8.71 2.90 9.34 2.90 9.73 3.2906L14 7.5L9.73 11.7094C9.34 12.09 8.71 12.09 8.31 11.70Z" fill="#595959"/>
</svg>
