<svg width="14" height="14" viewBox="0 0 14 14" fill="none" xmlns="http://www.w3.org/2000/svg">
<path fill-rule="evenodd" clip-rule="evenodd" d="M7 0C5.61 0 4.26 0.41 3.11 1.17973C1.95 1.94 1.06 3.04 0.53 4.32122C0.00 5.60 -0.13 7.00 0.13 8.36564C0.40 9.72 1.07 10.97 2.05 11.9498C3.02 12.93 4.27 13.56 5.63 13.8655C6.99 14.13 8.39 13.99 9.67 13.4672C10.95 12.93 12.05 12.04 12.82 10.889C13.58 9.73 14 8.38 14 7C13.9978 5.14 13.25 3.36 11.94 2.05265C10.63 0.74 8.85 0.00 7 0ZM11.75 4.32055C12.09 4.72 12.07 5.35 11.70 5.73376L6.79 10.7338C6.45 11.08 5.91 11.08 5.56 10.7338L2.29 7.40039C1.92 7.02 1.90 6.39 2.24 5.9873C2.58 5.58 3.15 5.55 3.52 5.93286L6.18 8.63721L10.47 4.26623C10.84 3.89 11.41 3.91 11.75 4.32Z" fill="#70C292"/>
</svg>
