<svg width="44" height="44" fill="none" xmlns="http://www.w3.org/2000/svg"><g filter="url(#a)"><path d="M6.5 21a16 16 0 1 1 32 0 16 16 0 0 1-32 0Z" fill="#fff" shape-rendering="crispEdges"/><path fill-rule="evenodd" clip-rule="evenodd" d="M22.5 34.9a13.9 13.9 0 1 0 0-27.8 13.9 13.9 0 0 0 0 27.8Zm0-3.5c2.2 0 4.4-.7 6-2l-6-6-5.7 6c1.4 1.3 3.4 2 5.7 2ZM14 27l6-6-6-6a10.6 10.6 0 0 0 0 12Zm8.5-8.5-6.1-6a10.5 10.5 0 0 1 12.1 0l-6 6Zm2.4 2.5 6-6a10 10 0 0 1 0 12l-6-6.1" fill="#595959"/><path d="M22.5 36a15 15 0 0 1-15-15h-2a17 17 0 0 0 17 17v-2Zm15-15c0 8.2-6.8 15-15 15v2c9.3 0 17-7.7 17-17h-2Zm-15-15a15 15 0 0 1 15 15h2a17 17 0 0 0-17-17v2Zm0-2a17 17 0 0 0-17 17h2a15 15 0 0 1 15-15V4Z" fill="#B3B3B3"/></g><defs><filter id="a" x=".5" y="0" width="44" height="44" filterUnits="userSpaceOnUse" color-interpolation-filters="sRGB"><feFlood flood-opacity="0" result="BackgroundImageFix"/><feColorMatrix in="SourceAlpha" values="0 0 0 0 0 0 0 0 0 0 0 0 0 0 0 0 0 0 127 0" result="hardAlpha"/><feOffset dy="1"/><feGaussianBlur stdDeviation="3"/><feComposite in2="hardAlpha" operator="out"/><feColorMatrix values="0 0 0 0 0 0 0 0 0 0 0 0 0 0 0 0 0 0 0.2 0"/><feBlend in2="BackgroundImageFix" result="effect1_dropShadow_14956_1577"/><feBlend in="SourceGraphic" in2="effect1_dropShadow_14956_1577" result="shape"/></filter></defs></svg>
