<svg xmlns="http://www.w3.org/2000/svg" width="16" height="16" viewBox="0 0 16 16">
	<path d="M4 13V3H7.7C9 3 10 3.2 10.7 3.7 11.4 4.2 11.8 4.9 11.8 5.8 11.8 6.3 11.7 6.7 11.4 7.1 11.2 7.5 10.8 7.7 10.3 7.9 10.9 8 11.3 8.3 11.6 8.7 11.9 9 12 9.5 12 10 12 11 11.7 11.8 11 12.3 10.4 12.7 9.4 13 8.2 13H4ZM6.5 8.7V11.1H8.1C8.6 11.1 8.9 11 9.2 10.9 9.4 10.6 9.5 10.4 9.5 10 9.5 9.2 9.1 8.8 8.2 8.7H6.5ZM6.5 7.2H7.8C8.3 7.2 8.7 7.1 9 6.9 9.2 6.7 9.3 6.4 9.3 6 9.3 5.6 9.2 5.3 8.9 5.1 8.7 5 8.3 4.9 7.7 4.9H6.5V7.2Z" fill="currentColor"/>
</svg>
