<svg width="16" height="16" viewBox="0 0 16 16" fill="none" xmlns="http://www.w3.org/2000/svg">
    <path fill-rule="evenodd" clip-rule="evenodd" d="M9 1H7V2.08C4.48 2.50 2.50 4.48 2.08 7H1V9H2.08C2.50 11.51 4.48 13.49 7 13.91V15H9V13.91C11.51 13.49 13.49 11.51 13.91
    9H15V7H13.91C13.49 4.48 11.51 2.50 9 2.08V1ZM7 4.12V6H9V4.12C10.40 4.48 11.51 5.59 11.874 7H10V9H11.87C11.51 10.40 10.40 11.51 9 11.87V10H7V11.87C5.59 11.51 4.48 10.40
     4.12 9H6V7H4.12C4.48 5.59 5.59 4.48 7 4.12Z" fill="#595959"/>
</svg>


