<svg width="12" height="9" viewBox="0 0 12 9" fill="none" xmlns="http://www.w3.org/2000/svg">
<path d="M11.70 8.7094C12.09 8.32 12.09 7.69 11.70 7.30627L8.86 4.5L11.70 1.69373C12.09 1.30 12.09 0.67 11.70 0.290599C11.31 -0.09 10.67 -0.09 10.28 0.290599L6.02 4.5L10.28 8.7094C10.67 9.09 11.31 9.09 11.70 8.70Z" fill="#595959"/>
<path d="M5.68 8.7094C6.07 8.32 6.07 7.69 5.68 7.30627L2.84 4.5L5.68 1.69373C6.07 1.30 6.07 0.67 5.68 0.290599C5.28 -0.09 4.65 -0.09 4.26 0.290599L0 4.5L4.26 8.7094C4.65 9.09 5.28 9.09 5.68 8.70Z" fill="#595959"/>
</svg>
