<svg xmlns="http://www.w3.org/2000/svg" width="16" height="16" viewBox="0 0 16 16" fill="none">
	<path d="M9.2 4.3C9.4 4.1 9.5 3.8 9.5 3.5 9.5 3.1 9.3 2.7 9.1 2.4 8.8 2.2 8.4 2 8 2 7.7 2 7.4 2.1 7.2 2.3 6.9 2.4 6.7 2.7 6.6 2.9 6.5 3.2 6.5 3.5 6.5 3.8 6.6 4.1 6.7 4.4 6.9 4.6 7.1 4.8 7.4 4.9 7.7 5 8 5 8.3 5 8.6 4.9 8.8 4.8 9.1 4.6 9.2 4.3Z" fill="currentColor" />
	<path d="M9.5 12.5C9.5 12.8 9.4 13.1 9.2 13.3 9.1 13.6 8.8 13.8 8.6 13.9 8.3 14 8 14 7.7 14 7.4 13.9 7.1 13.8 6.9 13.6 6.7 13.4 6.6 13.1 6.5 12.8 6.5 12.5 6.5 12.2 6.6 11.9 6.7 11.7 6.9 11.4 7.2 11.3 7.4 11.1 7.7 11 8 11 8.4 11 8.8 11.2 9.1 11.4 9.3 11.7 9.5 12.1 9.5 12.5Z" fill="currentColor" />
	<path d="M14 7H2V9H14V7Z" fill="currentColor" />
</svg>
