<svg xmlns="http://www.w3.org/2000/svg" width="16" height="16" viewBox="0 0 16 16" fill="none">
	<path d="M5 7.5C5 7.8 4.9 8.1 4.7 8.3 4.6 8.6 4.3 8.8 4.1 8.9 3.8 9 3.5 9 3.2 9 2.9 8.9 2.6 8.8 2.4 8.6 2.2 8.4 2.1 8.1 2 7.8 2 7.5 2 7.2 2.1 6.9 2.2 6.7 2.4 6.4 2.7 6.3 2.9 6.1 3.2 6 3.5 6 3.9 6 4.3 6.2 4.6 6.4 4.8 6.7 5 7.1 5 7.5ZM9.5 7.5C9.5 7.8 9.4 8.1 9.2 8.3 9.1 8.6 8.8 8.8 8.6 8.9 8.3 9 8 9 7.7 9 7.4 8.9 7.1 8.8 6.9 8.6 6.7 8.4 6.6 8.1 6.5 7.8 6.5 7.5 6.5 7.2 6.6 6.9 6.7 6.7 6.9 6.4 7.2 6.3 7.4 6.1 7.7 6 8 6 8.4 6 8.8 6.2 9.1 6.4 9.3 6.7 9.5 7.1 9.5 7.5ZM14 7.5C14 7.8 13.9 8.1 13.7 8.3 13.6 8.6 13.3 8.8 13.1 8.9 12.8 9 12.5 9 12.2 9 11.9 8.9 11.6 8.8 11.4 8.6 11.2 8.4 11.1 8.1 11 7.8 11 7.5 11 7.2 11.1 6.9 11.2 6.7 11.4 6.4 11.7 6.3 11.9 6.1 12.2 6 12.5 6 12.9 6 13.3 6.2 13.6 6.4 13.8 6.7 14 7.1 14 7.5Z" fill="currentColor"/>
</svg>
