<svg xmlns="http://www.w3.org/2000/svg" width="14" height="14" viewBox="0 0 14 14">
	<path d="M4.7 7.1C4.7 6.4 4.1 5.9 3.5 5.9 2.9 5.9 2.3 6.4 2.3 7.1 2.3 7.7 2.9 8.2 3.5 8.2 4.1 8.2 4.7 7.7 4.7 7.1ZM8.2 7.1C8.2 6.4 7.6 5.9 7 5.9 6.4 5.9 5.8 6.4 5.8 7.1 5.8 7.7 6.4 8.2 7 8.2 7.6 8.2 8.2 7.7 8.2 7.1ZM11.7 7.1C11.7 6.4 11.1 5.9 10.5 5.9 9.9 5.9 9.3 6.4 9.3 7.1 9.3 7.7 9.9 8.2 10.5 8.2 11.1 8.2 11.7 7.7 11.7 7.1ZM12 1L12 0H9L9 1H5L5 0H2L2 1H0L0 14H14V1H12ZM13 13H1V3.1H13V13Z" fill="currentColor"/>
</svg>
