<svg xmlns="http://www.w3.org/2000/svg" width="15" height="12" viewBox="0 0 15 12">
	<path d="M3.4 5.2H4.1C4.3 5.2 4.5 5.3 4.6 5.3 4.7 5.4 4.7 5.6 4.7 5.8 4.7 5.9 4.7 6.3 4.6 6.4 4.5 6.5 4.3 6.5 4.1 6.5H1.5C1.3 6.5 1.1 6.5 1 6.4 0.9 6.3 0.9 5.9 0.9 5.8 0.9 5.6 0.9 5.4 1 5.3 1.1 5.3 1.3 5.2 1.5 5.2H2.2V1.4L1.7 1.5C1.6 1.5 1.5 1.5 1.4 1.6 1.4 1.6 1.3 1.6 1.3 1.6 1.2 1.6 1.1 1.5 1 1.4 0.9 1.4 0.9 1.1 0.9 0.9 0.9 0.8 0.9 0.7 1 0.6 1.1 0.5 1.2 0.5 1.4 0.4L2.6 0.1C2.7 0.1 2.8 0 2.9 0 3 0 3 0 3.1 0 3.2 0 3.3 0 3.4 0.1 3.4 0.2 3.4 0.3 3.4 0.5V5.2Z" class="currentColor" />
	<path d="M7.3 7.9H8.9V7.8C8.9 7.7 8.9 7.5 9 7.4 9.1 7.4 9.3 7.3 9.4 7.3 9.6 7.3 9.7 7.4 9.8 7.4 9.9 7.5 9.9 7.6 9.9 7.8V7.9L9.9 8.7C9.9 8.9 9.8 9 9.8 9 9.7 9 9.7 9.1 9.6 9.1H6C5.8 9.1 5.6 9 5.5 8.9 5.4 8.9 5.4 8.7 5.4 8.6 5.4 8.5 5.4 8.3 5.5 8.2 5.5 8.1 5.6 8 5.8 7.8L7.8 5.9C8 5.7 8.2 5.5 8.3 5.3 8.4 5.1 8.5 4.9 8.5 4.6 8.5 4.3 8.4 4.1 8.2 4 8.1 3.8 7.9 3.7 7.6 3.7 7.4 3.7 7.3 3.8 7.1 3.8 7 3.9 6.9 3.9 6.8 4 6.8 4.1 6.7 4.2 6.7 4.3 6.5 4.5 6.3 4.6 6.1 4.6 6 4.6 5.8 4.6 5.7 4.5 5.7 4.4 5.6 4.2 5.6 4 5.6 3.8 5.6 3.6 5.7 3.5 5.8 3.4 5.9 3.3 6 3.2 6.3 3 6.6 2.9 6.8 2.8 7.1 2.7 7.5 2.6 7.8 2.6 8.4 2.6 8.9 2.8 9.3 3.2 9.7 3.5 9.8 4 9.8 4.5 9.8 4.9 9.7 5.3 9.6 5.6 9.4 6 9.1 6.3 8.7 6.7L7.3 7.9Z" class="currentColor" />
	<path d="M13.9 8.2C14.2 8.3 14.5 8.5 14.7 8.8 14.9 9 15 9.4 15 9.8 15 10.4 14.8 10.9 14.4 11.3 13.9 11.6 13.4 11.8 12.6 11.8 12 11.8 11.6 11.7 11.2 11.5 10.8 11.3 10.6 11.1 10.6 10.8 10.6 10.6 10.7 10.5 10.8 10.4 10.9 10.3 11 10.3 11.2 10.3 11.3 10.3 11.5 10.3 11.8 10.5 12.2 10.6 12.5 10.7 12.7 10.7 13 10.7 13.3 10.6 13.4 10.5 13.6 10.3 13.7 10 13.7 9.7 13.7 9.4 13.6 9.2 13.5 9 13.3 8.9 13.1 8.8 12.7 8.8 12.5 8.8 12.3 8.7 12.2 8.7 12.2 8.6 12.1 8.4 12.1 8.2 12.1 8 12.3 7.8 12.6 7.8 12.6 7.8 12.6 7.8 12.7 7.8 13 7.7 13.3 7.6 13.4 7.5 13.5 7.4 13.5 7.2 13.5 6.9 13.5 6.7 13.5 6.5 13.3 6.4 13.2 6.2 13 6.2 12.8 6.2 12.5 6.2 12.3 6.2 12 6.4 11.6 6.6 11.4 6.6 11.3 6.6 11.2 6.6 11.1 6.6 11 6.5 10.9 6.4 10.9 6.3 10.9 6.2 10.9 5.9 11.1 5.7 11.5 5.5 11.9 5.2 12.4 5.1 12.9 5.1 13.5 5.1 14 5.3 14.3 5.6 14.7 5.9 14.8 6.3 14.8 6.8 14.8 7.1 14.8 7.4 14.6 7.6 14.4 7.9 14.2 8 13.9 8.2Z" class="currentColor" />
</svg>
