<svg xmlns="http://www.w3.org/2000/svg" width="16" height="16" viewBox="0 0 16 16" fill="none">
	<style>.a{fill:white;}</style>
	<path d="M8 2.17C7.98 2.17 7.98 2.17 7.97 2.17V1L5.57 3.15 7.98 5.29V4.05C7.98 4.05 8 4.05 8.02 4.05 10.24 4.05 12.06 5.82 12.06 8 12.06 8.98 11.7 9.88 11.09 10.57L12.51 11.84C13.44 10.82 14 9.46 14 8 14 4.78 11.31 2.17 8 2.17Z" class="a"/><path d="M7.97 11.95C5.74 11.94 3.94 10.18 3.94 8 3.94 7.04 4.29 6.16 4.88 5.48L3.39 4.27C2.53 5.28 2 6.58 2 8 2 11.2 4.67 13.82 7.97 13.83V15L10.35 12.87 7.97 10.75V11.95Z" class="a"/>
</svg>
